


<?xml version="1.0" encoding="utf-8"?><!-- Uploaded to: SVG Repo, www.svgrepo.com, Generator: SVG Repo Mixer Tools -->
<svg xmlns="http://www.w3.org/2000/svg" xmlnsXlink="http://www.w3.org/1999/xlink" viewBox="0 0 500 500" width="250" height="250" style="width: 100%; height: 100%; transform: translate3d(0px, 0px, 0px); content-visibility: visible;" preserveAspectRatio="xMidYMid meet">
    <defs><clipPath id="__lottie_element_148"><rect width="250" height="250" x="0" y="0"></rect></clipPath><clipPath id="__lottie_element_151"><path d="M0,0 L500,0 L500,500 L0,500z"></path></clipPath><clipPath id="__lottie_element_165"><path d="M0,0 L500,0 L500,500 L0,500z"></path></clipPath><clipPath id="__lottie_element_179"><path d="M0,0 L500,0 L500,500 L0,500z"></path></clipPath><clipPath id="__lottie_element_193"><path d="M0,0 L500,0 L500,500 L0,500z"></path></clipPath><clipPath id="__lottie_element_207"><path d="M0,0 L500,0 L500,500 L0,500z"></path></clipPath></defs><g clip-path="url(#__lottie_element_148)"><g clip-path="url(#__lottie_element_207)" style="display: none;" transform="matrix(1.1032341718673706,0,0,1.1032341718673706,-28.620553970336914,53.52985382080078)" opacity="1"><g style="display: block;" transform="matrix(1.2282136678695679,-0.6877623200416565,0.6877623200416565,1.2282136678695679,108.20925903320312,246.3053741455078)" opacity="1"><g opacity="1" transform="matrix(1,0,0,1,46.46200180053711,41.20199966430664)"><path fill="rgb(44,27,79)" fill-opacity="1" d=" M39.98400115966797,-8.07800006866455 C39.98400115966797,-8.07800006866455 2.6760001182556152,-6.998000144958496 15.779000282287598,-40.95199966430664 C15.779000282287598,-40.95199966430664 -46.21099853515625,-35.972999572753906 -42.07899856567383,15.685999870300293 C-42.07899856567383,15.685999870300293 -10.427000045776367,-15.496999740600586 0.2809999883174896,18.128999710083008 C0.2809999883174896,18.128999710083008 24.23200035095215,10.989999771118164 22.07200050354004,35.505001068115234 C22.07200050354004,35.505001068115234 33.71900177001953,23.670000076293945 46.21200180053711,40.95199966430664 C46.21200180053711,40.95199966430664 39.98400115966797,-8.07800006866455 39.98400115966797,-8.07800006866455z"></path></g><g opacity="1" transform="matrix(1,0,0,1,73.88400268554688,29.139999389648438)"><path fill="rgb(32,21,60)" fill-opacity="1" d=" M13.187000274658203,8.906000137329102 C13.187000274658203,8.906000137329102 12.562000274658203,3.9839999675750732 12.562000274658203,3.9839999675750732 C12.562000274658203,3.9839999675750732 -7.889999866485596,4.572999954223633 -13.187000274658203,-8.906000137329102 C-11.223999977111816,5.735000133514404 4.552000045776367,8.501999855041504 13.187000274658203,8.906000137329102z"></path></g><g opacity="1" transform="matrix(1,0,0,1,31.246000289916992,28.569000244140625)"><path fill="rgb(32,21,60)" fill-opacity="1" d=" M-24.232999801635742,21.836999893188477 C-14.397000312805176,-14.144000053405762 24.09000015258789,-24.85700035095215 30.288000106811523,-26.363000869750977 C30.506000518798828,-27.003000259399414 30.738000869750977,-27.650999069213867 30.996000289916992,-28.31800079345703 C30.996000289916992,-28.31800079345703 -30.996000289916992,-23.340999603271484 -26.863000869750977,28.31800079345703 C-26.863000869750977,28.31800079345703 -17.618999481201172,19.215999603271484 -7.431000232696533,16.152000427246094 C-16.788000106811523,13.173999786376953 -24.232999801635742,21.836999893188477 -24.232999801635742,21.836999893188477z"></path></g></g><g style="display: block;" transform="matrix(1.2282136678695679,0.6877623200416565,-0.6877623200416565,1.2282136678695679,165.14306640625,116.61296081542969)" opacity="1"><g opacity="1" transform="matrix(1,0,0,1,138.88400268554688,41.20199966430664)"><path fill="rgb(44,27,79)" fill-opacity="1" d=" M-39.983001708984375,-8.07800006866455 C-39.983001708984375,-8.07800006866455 -2.6760001182556152,-6.998000144958496 -15.779000282287598,-40.95199966430664 C-15.779000282287598,-40.95199966430664 46.21200180053711,-35.972999572753906 42.08000183105469,15.685999870300293 C42.08000183105469,15.685999870300293 10.427000045776367,-15.496999740600586 -0.2809999883174896,18.128999710083008 C-0.2809999883174896,18.128999710083008 -24.23200035095215,10.989999771118164 -22.07200050354004,35.505001068115234 C-22.07200050354004,35.505001068115234 -33.71799850463867,23.670000076293945 -46.21099853515625,40.95199966430664 C-46.21099853515625,40.95199966430664 -39.983001708984375,-8.07800006866455 -39.983001708984375,-8.07800006866455z"></path></g><g opacity="1" transform="matrix(1,0,0,1,111.46199798583984,29.139999389648438)"><path fill="rgb(32,21,60)" fill-opacity="1" d=" M-13.185999870300293,8.906000137329102 C-13.185999870300293,8.906000137329102 -12.562000274658203,3.9839999675750732 -12.562000274658203,3.9839999675750732 C-12.562000274658203,3.9839999675750732 7.888999938964844,4.572999954223633 13.185999870300293,-8.906000137329102 C11.222999572753906,5.735000133514404 -4.551000118255615,8.501999855041504 -13.185999870300293,8.906000137329102z"></path></g><g opacity="1" transform="matrix(1,0,0,1,154.10000610351562,28.569000244140625)"><path fill="rgb(32,21,60)" fill-opacity="1" d=" M24.232999801635742,21.836999893188477 C14.397000312805176,-14.144000053405762 -24.09000015258789,-24.85700035095215 -30.288000106811523,-26.363000869750977 C-30.506000518798828,-27.003000259399414 -30.738000869750977,-27.650999069213867 -30.996000289916992,-28.31800079345703 C-30.996000289916992,-28.31800079345703 30.996000289916992,-23.340999603271484 26.863000869750977,28.31800079345703 C26.863000869750977,28.31800079345703 17.618999481201172,19.215999603271484 7.431000232696533,16.152000427246094 C16.788000106811523,13.173999786376953 24.232999801635742,21.836999893188477 24.232999801635742,21.836999893188477z"></path></g></g><g style="display: block;" transform="matrix(1.407666802406311,0,0,1.407666802406311,119.54730224609375,182.64671325683594)" opacity="1"><g opacity="1" transform="matrix(1,0,0,1,92.6729965209961,88.18099975585938)"><path fill="rgb(44,27,79)" fill-opacity="1" d=" M3.4519999027252197,3.6670000553131104 C3.4519999027252197,3.6670000553131104 2.9159998893737793,-0.5609999895095825 2.9159998893737793,-0.5609999895095825 C0.6990000009536743,-2.181999921798706 -1.440000057220459,-3.1559998989105225 -3.4519999027252197,-3.6670000553131104 C-1.2089999914169312,-1.9559999704360962 1.1089999675750732,0.42500001192092896 3.4519999027252197,3.6670000553131104z"></path></g><g opacity="1" transform="matrix(1,0,0,1,92.6729965209961,53.305999755859375)"><path fill="rgb(48,32,88)" fill-opacity="1" d=" M11.406000137329102,-18.204999923706055 C14.383999824523926,-21.59000015258789 15.269000053405762,-24.847000122070312 14.618000030517578,-27.621999740600586 C14.618000030517578,-27.621999740600586 14.62600040435791,-27.614999771118164 14.62600040435791,-27.614999771118164 C17.427000045776367,-35.138999938964844 11.741999626159668,-43.237998962402344 11.741999626159668,-43.237998962402344 C10.916999816894531,-40.40299987792969 7.919000148773193,-35.952999114990234 7.067999839782715,-34.7239990234375 C5,-35.42599868774414 2.6070001125335693,-35.816001892089844 0,-35.816001892089844 C-2.6080000400543213,-35.816001892089844 -4.999000072479248,-35.42599868774414 -7.067999839782715,-34.7239990234375 C-7.918000221252441,-35.952999114990234 -10.916000366210938,-40.40299987792969 -11.741000175476074,-43.237998962402344 C-11.741000175476074,-43.237998962402344 -17.427000045776367,-35.138999938964844 -14.625,-27.614999771118164 C-14.625,-27.614999771118164 -14.616999626159668,-27.621999740600586 -14.616999626159668,-27.621999740600586 C-15.269000053405762,-24.847000122070312 -14.383000373840332,-21.59000015258789 -11.406000137329102,-18.204999923706055 C-29.856000900268555,5.443999767303467 0,43.237998962402344 0,43.237998962402344 C0,43.237998962402344 29.856000900268555,5.443999767303467 11.406000137329102,-18.204999923706055z"></path></g><g opacity="1" transform="matrix(1,0,0,1,86.7750015258789,25.875)"><path fill="rgb(196,6,5)" fill-opacity="1" d=" M-2.180000066757202,0 C-2.180000066757202,-1.2050000429153442 -1.2029999494552612,-2.180999994277954 0.0010000000474974513,-2.180999994277954 C1.2050000429153442,-2.180999994277954 2.180000066757202,-1.2050000429153442 2.180000066757202,0 C2.180000066757202,1.2039999961853027 1.2050000429153442,2.180999994277954 0.0010000000474974513,2.180999994277954 C-1.2029999494552612,2.180999994277954 -2.180000066757202,1.2039999961853027 -2.180000066757202,0z"></path></g><g opacity="1" transform="matrix(1,0,0,1,98.5719985961914,25.875)"><path fill="rgb(196,6,5)" fill-opacity="1" d=" M-2.180000066757202,0 C-2.180000066757202,-1.2050000429153442 -1.2029999494552612,-2.180999994277954 0.0010000000474974513,-2.180999994277954 C1.2050000429153442,-2.180999994277954 2.180000066757202,-1.2050000429153442 2.180000066757202,0 C2.180000066757202,1.2039999961853027 1.2050000429153442,2.180999994277954 0.0010000000474974513,2.180999994277954 C-1.2029999494552612,2.180999994277954 -2.180000066757202,1.2039999961853027 -2.180000066757202,0z"></path></g><g opacity="1" transform="matrix(1,0,0,1,88.875,33.236000061035156)"><path fill="rgb(252,252,252)" fill-opacity="1" d=" M-0.7490000128746033,-1.7269999980926514 C-0.7490000128746033,-1.7269999980926514 -1.1160000562667847,1.7269999980926514 -1.1160000562667847,1.7269999980926514 C-1.1160000562667847,1.7269999980926514 1.1160000562667847,-1.0260000228881836 1.1160000562667847,-1.0260000228881836 C1.1160000562667847,-1.0260000228881836 -0.7490000128746033,-1.7269999980926514 -0.7490000128746033,-1.7269999980926514z"></path></g><g opacity="1" transform="matrix(1,0,0,1,96.47200012207031,33.236000061035156)"><path fill="rgb(252,252,252)" fill-opacity="1" d=" M0.7490000128746033,-1.7269999980926514 C0.7490000128746033,-1.7269999980926514 1.1160000562667847,1.7269999980926514 1.1160000562667847,1.7269999980926514 C1.1160000562667847,1.7269999980926514 -1.1160000562667847,-1.0260000228881836 -1.1160000562667847,-1.0260000228881836 C-1.1160000562667847,-1.0260000228881836 0.7490000128746033,-1.7269999980926514 0.7490000128746033,-1.7269999980926514z"></path></g><g opacity="1" transform="matrix(1,0,0,1,92.6760025024414,32.263999938964844)"><path fill="rgb(32,21,60)" fill-opacity="1" d=" M-0.07699999958276749,1.2730000019073486 C-3.308000087738037,1.2730000019073486 -5.488999843597412,-0.28299999237060547 -5.625,-0.38199999928474426 C-5.916999816894531,-0.597000002861023 -5.980000019073486,-1.00600004196167 -5.765999794006348,-1.2990000247955322 C-5.553999900817871,-1.590999960899353 -5.142000198364258,-1.656000018119812 -4.848999977111816,-1.4420000314712524 C-4.672999858856201,-1.3140000104904175 -0.4480000138282776,1.6619999408721924 4.895999908447266,-1.4769999980926514 C5.209000110626221,-1.6610000133514404 5.611999988555908,-1.5570000410079956 5.796000003814697,-1.24399995803833 C5.980000019073486,-0.9309999942779541 5.874000072479248,-0.527999997138977 5.561999797821045,-0.3449999988079071 C3.496000051498413,0.8679999709129333 1.5720000267028809,1.2730000019073486 -0.07699999958276749,1.2730000019073486z"></path></g><g opacity="1" transform="matrix(1,0,0,1,81.08899688720703,17.708999633789062)"><path fill="rgb(44,27,79)" fill-opacity="1" d=" M-0.4230000078678131,-5.210000038146973 C-0.4230000078678131,-5.210000038146973 -3.505000114440918,1.6670000553131104 -1.0720000267028809,5.210000038146973 C-1.0720000267028809,5.210000038146973 -0.07199999690055847,2.7360000610351562 3.505000114440918,1.5410000085830688 C3.505000114440918,1.5410000085830688 1.5759999752044678,-0.1080000028014183 -0.4230000078678131,-5.210000038146973z"></path></g><g opacity="1" transform="matrix(1,0,0,1,104.15299987792969,17.708999633789062)"><path fill="rgb(44,27,79)" fill-opacity="1" d=" M0.4230000078678131,-5.210000038146973 C0.4230000078678131,-5.210000038146973 3.505000114440918,1.6670000553131104 1.0720000267028809,5.210000038146973 C1.0720000267028809,5.210000038146973 0.07199999690055847,2.7360000610351562 -3.505000114440918,1.5410000085830688 C-3.505000114440918,1.5410000085830688 -1.5759999752044678,-0.1080000028014183 0.4230000078678131,-5.210000038146973z"></path></g></g></g><g clip-path="url(#__lottie_element_193)" style="display: none;" transform="matrix(1.4009029865264893,0,0,1.4009029865264893,-103.0377426147461,-100.4367446899414)" opacity="1"><g style="display: block;" transform="matrix(1.2293496131896973,-0.6849499344825745,0.6849499344825745,1.2293496131896973,108.2262191772461,246.1598358154297)" opacity="1"><g opacity="1" transform="matrix(1,0,0,1,46.46200180053711,41.20199966430664)"><path fill="rgb(44,27,79)" fill-opacity="1" d=" M39.98400115966797,-8.07800006866455 C39.98400115966797,-8.07800006866455 2.6760001182556152,-6.998000144958496 15.779000282287598,-40.95199966430664 C15.779000282287598,-40.95199966430664 -46.21099853515625,-35.972999572753906 -42.07899856567383,15.685999870300293 C-42.07899856567383,15.685999870300293 -10.427000045776367,-15.496999740600586 0.2809999883174896,18.128999710083008 C0.2809999883174896,18.128999710083008 24.23200035095215,10.989999771118164 22.07200050354004,35.505001068115234 C22.07200050354004,35.505001068115234 33.71900177001953,23.670000076293945 46.21200180053711,40.95199966430664 C46.21200180053711,40.95199966430664 39.98400115966797,-8.07800006866455 39.98400115966797,-8.07800006866455z"></path></g><g opacity="1" transform="matrix(1,0,0,1,73.88400268554688,29.139999389648438)"><path fill="rgb(32,21,60)" fill-opacity="1" d=" M13.187000274658203,8.906000137329102 C13.187000274658203,8.906000137329102 12.562000274658203,3.9839999675750732 12.562000274658203,3.9839999675750732 C12.562000274658203,3.9839999675750732 -7.889999866485596,4.572999954223633 -13.187000274658203,-8.906000137329102 C-11.223999977111816,5.735000133514404 4.552000045776367,8.501999855041504 13.187000274658203,8.906000137329102z"></path></g><g opacity="1" transform="matrix(1,0,0,1,31.246000289916992,28.569000244140625)"><path fill="rgb(32,21,60)" fill-opacity="1" d=" M-24.232999801635742,21.836999893188477 C-14.397000312805176,-14.144000053405762 24.09000015258789,-24.85700035095215 30.288000106811523,-26.363000869750977 C30.506000518798828,-27.003000259399414 30.738000869750977,-27.650999069213867 30.996000289916992,-28.31800079345703 C30.996000289916992,-28.31800079345703 -30.996000289916992,-23.340999603271484 -26.863000869750977,28.31800079345703 C-26.863000869750977,28.31800079345703 -17.618999481201172,19.215999603271484 -7.431000232696533,16.152000427246094 C-16.788000106811523,13.173999786376953 -24.232999801635742,21.836999893188477 -24.232999801635742,21.836999893188477z"></path></g></g><g style="display: block;" transform="matrix(1.2293496131896973,0.6849499344825745,-0.6849499344825745,1.2293496131896973,164.90887451171875,116.99732208251953)" opacity="1"><g opacity="1" transform="matrix(1,0,0,1,138.88400268554688,41.20199966430664)"><path fill="rgb(44,27,79)" fill-opacity="1" d=" M-39.983001708984375,-8.07800006866455 C-39.983001708984375,-8.07800006866455 -2.6760001182556152,-6.998000144958496 -15.779000282287598,-40.95199966430664 C-15.779000282287598,-40.95199966430664 46.21200180053711,-35.972999572753906 42.08000183105469,15.685999870300293 C42.08000183105469,15.685999870300293 10.427000045776367,-15.496999740600586 -0.2809999883174896,18.128999710083008 C-0.2809999883174896,18.128999710083008 -24.23200035095215,10.989999771118164 -22.07200050354004,35.505001068115234 C-22.07200050354004,35.505001068115234 -33.71799850463867,23.670000076293945 -46.21099853515625,40.95199966430664 C-46.21099853515625,40.95199966430664 -39.983001708984375,-8.07800006866455 -39.983001708984375,-8.07800006866455z"></path></g><g opacity="1" transform="matrix(1,0,0,1,111.46199798583984,29.139999389648438)"><path fill="rgb(32,21,60)" fill-opacity="1" d=" M-13.185999870300293,8.906000137329102 C-13.185999870300293,8.906000137329102 -12.562000274658203,3.9839999675750732 -12.562000274658203,3.9839999675750732 C-12.562000274658203,3.9839999675750732 7.888999938964844,4.572999954223633 13.185999870300293,-8.906000137329102 C11.222999572753906,5.735000133514404 -4.551000118255615,8.501999855041504 -13.185999870300293,8.906000137329102z"></path></g><g opacity="1" transform="matrix(1,0,0,1,154.10000610351562,28.569000244140625)"><path fill="rgb(32,21,60)" fill-opacity="1" d=" M24.232999801635742,21.836999893188477 C14.397000312805176,-14.144000053405762 -24.09000015258789,-24.85700035095215 -30.288000106811523,-26.363000869750977 C-30.506000518798828,-27.003000259399414 -30.738000869750977,-27.650999069213867 -30.996000289916992,-28.31800079345703 C-30.996000289916992,-28.31800079345703 30.996000289916992,-23.340999603271484 26.863000869750977,28.31800079345703 C26.863000869750977,28.31800079345703 17.618999481201172,19.215999603271484 7.431000232696533,16.152000427246094 C16.788000106811523,13.173999786376953 24.232999801635742,21.836999893188477 24.232999801635742,21.836999893188477z"></path></g></g><g style="display: block;" transform="matrix(1.4072870016098022,0,0,1.4072870016098022,119.5824966430664,182.79122924804688)" opacity="1"><g opacity="1" transform="matrix(1,0,0,1,92.6729965209961,88.18099975585938)"><path fill="rgb(44,27,79)" fill-opacity="1" d=" M3.4519999027252197,3.6670000553131104 C3.4519999027252197,3.6670000553131104 2.9159998893737793,-0.5609999895095825 2.9159998893737793,-0.5609999895095825 C0.6990000009536743,-2.181999921798706 -1.440000057220459,-3.1559998989105225 -3.4519999027252197,-3.6670000553131104 C-1.2089999914169312,-1.9559999704360962 1.1089999675750732,0.42500001192092896 3.4519999027252197,3.6670000553131104z"></path></g><g opacity="1" transform="matrix(1,0,0,1,92.6729965209961,53.305999755859375)"><path fill="rgb(48,32,88)" fill-opacity="1" d=" M11.406000137329102,-18.204999923706055 C14.383999824523926,-21.59000015258789 15.269000053405762,-24.847000122070312 14.618000030517578,-27.621999740600586 C14.618000030517578,-27.621999740600586 14.62600040435791,-27.614999771118164 14.62600040435791,-27.614999771118164 C17.427000045776367,-35.138999938964844 11.741999626159668,-43.237998962402344 11.741999626159668,-43.237998962402344 C10.916999816894531,-40.40299987792969 7.919000148773193,-35.952999114990234 7.067999839782715,-34.7239990234375 C5,-35.42599868774414 2.6070001125335693,-35.816001892089844 0,-35.816001892089844 C-2.6080000400543213,-35.816001892089844 -4.999000072479248,-35.42599868774414 -7.067999839782715,-34.7239990234375 C-7.918000221252441,-35.952999114990234 -10.916000366210938,-40.40299987792969 -11.741000175476074,-43.237998962402344 C-11.741000175476074,-43.237998962402344 -17.427000045776367,-35.138999938964844 -14.625,-27.614999771118164 C-14.625,-27.614999771118164 -14.616999626159668,-27.621999740600586 -14.616999626159668,-27.621999740600586 C-15.269000053405762,-24.847000122070312 -14.383000373840332,-21.59000015258789 -11.406000137329102,-18.204999923706055 C-29.856000900268555,5.443999767303467 0,43.237998962402344 0,43.237998962402344 C0,43.237998962402344 29.856000900268555,5.443999767303467 11.406000137329102,-18.204999923706055z"></path></g><g opacity="1" transform="matrix(1,0,0,1,86.7750015258789,25.875)"><path fill="rgb(196,6,5)" fill-opacity="1" d=" M-2.180000066757202,0 C-2.180000066757202,-1.2050000429153442 -1.2029999494552612,-2.180999994277954 0.0010000000474974513,-2.180999994277954 C1.2050000429153442,-2.180999994277954 2.180000066757202,-1.2050000429153442 2.180000066757202,0 C2.180000066757202,1.2039999961853027 1.2050000429153442,2.180999994277954 0.0010000000474974513,2.180999994277954 C-1.2029999494552612,2.180999994277954 -2.180000066757202,1.2039999961853027 -2.180000066757202,0z"></path></g><g opacity="1" transform="matrix(1,0,0,1,98.5719985961914,25.875)"><path fill="rgb(196,6,5)" fill-opacity="1" d=" M-2.180000066757202,0 C-2.180000066757202,-1.2050000429153442 -1.2029999494552612,-2.180999994277954 0.0010000000474974513,-2.180999994277954 C1.2050000429153442,-2.180999994277954 2.180000066757202,-1.2050000429153442 2.180000066757202,0 C2.180000066757202,1.2039999961853027 1.2050000429153442,2.180999994277954 0.0010000000474974513,2.180999994277954 C-1.2029999494552612,2.180999994277954 -2.180000066757202,1.2039999961853027 -2.180000066757202,0z"></path></g><g opacity="1" transform="matrix(1,0,0,1,88.875,33.236000061035156)"><path fill="rgb(252,252,252)" fill-opacity="1" d=" M-0.7490000128746033,-1.7269999980926514 C-0.7490000128746033,-1.7269999980926514 -1.1160000562667847,1.7269999980926514 -1.1160000562667847,1.7269999980926514 C-1.1160000562667847,1.7269999980926514 1.1160000562667847,-1.0260000228881836 1.1160000562667847,-1.0260000228881836 C1.1160000562667847,-1.0260000228881836 -0.7490000128746033,-1.7269999980926514 -0.7490000128746033,-1.7269999980926514z"></path></g><g opacity="1" transform="matrix(1,0,0,1,96.47200012207031,33.236000061035156)"><path fill="rgb(252,252,252)" fill-opacity="1" d=" M0.7490000128746033,-1.7269999980926514 C0.7490000128746033,-1.7269999980926514 1.1160000562667847,1.7269999980926514 1.1160000562667847,1.7269999980926514 C1.1160000562667847,1.7269999980926514 -1.1160000562667847,-1.0260000228881836 -1.1160000562667847,-1.0260000228881836 C-1.1160000562667847,-1.0260000228881836 0.7490000128746033,-1.7269999980926514 0.7490000128746033,-1.7269999980926514z"></path></g><g opacity="1" transform="matrix(1,0,0,1,92.6760025024414,32.263999938964844)"><path fill="rgb(32,21,60)" fill-opacity="1" d=" M-0.07699999958276749,1.2730000019073486 C-3.308000087738037,1.2730000019073486 -5.488999843597412,-0.28299999237060547 -5.625,-0.38199999928474426 C-5.916999816894531,-0.597000002861023 -5.980000019073486,-1.00600004196167 -5.765999794006348,-1.2990000247955322 C-5.553999900817871,-1.590999960899353 -5.142000198364258,-1.656000018119812 -4.848999977111816,-1.4420000314712524 C-4.672999858856201,-1.3140000104904175 -0.4480000138282776,1.6619999408721924 4.895999908447266,-1.4769999980926514 C5.209000110626221,-1.6610000133514404 5.611999988555908,-1.5570000410079956 5.796000003814697,-1.24399995803833 C5.980000019073486,-0.9309999942779541 5.874000072479248,-0.527999997138977 5.561999797821045,-0.3449999988079071 C3.496000051498413,0.8679999709129333 1.5720000267028809,1.2730000019073486 -0.07699999958276749,1.2730000019073486z"></path></g><g opacity="1" transform="matrix(1,0,0,1,81.08899688720703,17.708999633789062)"><path fill="rgb(44,27,79)" fill-opacity="1" d=" M-0.4230000078678131,-5.210000038146973 C-0.4230000078678131,-5.210000038146973 -3.505000114440918,1.6670000553131104 -1.0720000267028809,5.210000038146973 C-1.0720000267028809,5.210000038146973 -0.07199999690055847,2.7360000610351562 3.505000114440918,1.5410000085830688 C3.505000114440918,1.5410000085830688 1.5759999752044678,-0.1080000028014183 -0.4230000078678131,-5.210000038146973z"></path></g><g opacity="1" transform="matrix(1,0,0,1,104.15299987792969,17.708999633789062)"><path fill="rgb(44,27,79)" fill-opacity="1" d=" M0.4230000078678131,-5.210000038146973 C0.4230000078678131,-5.210000038146973 3.505000114440918,1.6670000553131104 1.0720000267028809,5.210000038146973 C1.0720000267028809,5.210000038146973 0.07199999690055847,2.7360000610351562 -3.505000114440918,1.5410000085830688 C-3.505000114440918,1.5410000085830688 -1.5759999752044678,-0.1080000028014183 0.4230000078678131,-5.210000038146973z"></path></g></g></g><g clip-path="url(#__lottie_element_179)" style="display: none;" transform="matrix(1.4009029865264893,0,0,1.4009029865264893,-103.0377426147461,-100.4367446899414)" opacity="1"><g style="display: block;" transform="matrix(1.2275617122650146,-0.6893686056137085,0.6893686056137085,1.2275617122650146,108.19984436035156,246.38861083984375)" opacity="1"><g opacity="1" transform="matrix(1,0,0,1,46.46200180053711,41.20199966430664)"><path fill="rgb(44,27,79)" fill-opacity="1" d=" M39.98400115966797,-8.07800006866455 C39.98400115966797,-8.07800006866455 2.6760001182556152,-6.998000144958496 15.779000282287598,-40.95199966430664 C15.779000282287598,-40.95199966430664 -46.21099853515625,-35.972999572753906 -42.07899856567383,15.685999870300293 C-42.07899856567383,15.685999870300293 -10.427000045776367,-15.496999740600586 0.2809999883174896,18.128999710083008 C0.2809999883174896,18.128999710083008 24.23200035095215,10.989999771118164 22.07200050354004,35.505001068115234 C22.07200050354004,35.505001068115234 33.71900177001953,23.670000076293945 46.21200180053711,40.95199966430664 C46.21200180053711,40.95199966430664 39.98400115966797,-8.07800006866455 39.98400115966797,-8.07800006866455z"></path></g><g opacity="1" transform="matrix(1,0,0,1,73.88400268554688,29.139999389648438)"><path fill="rgb(32,21,60)" fill-opacity="1" d=" M13.187000274658203,8.906000137329102 C13.187000274658203,8.906000137329102 12.562000274658203,3.9839999675750732 12.562000274658203,3.9839999675750732 C12.562000274658203,3.9839999675750732 -7.889999866485596,4.572999954223633 -13.187000274658203,-8.906000137329102 C-11.223999977111816,5.735000133514404 4.552000045776367,8.501999855041504 13.187000274658203,8.906000137329102z"></path></g><g opacity="1" transform="matrix(1,0,0,1,31.246000289916992,28.569000244140625)"><path fill="rgb(32,21,60)" fill-opacity="1" d=" M-24.232999801635742,21.836999893188477 C-14.397000312805176,-14.144000053405762 24.09000015258789,-24.85700035095215 30.288000106811523,-26.363000869750977 C30.506000518798828,-27.003000259399414 30.738000869750977,-27.650999069213867 30.996000289916992,-28.31800079345703 C30.996000289916992,-28.31800079345703 -30.996000289916992,-23.340999603271484 -26.863000869750977,28.31800079345703 C-26.863000869750977,28.31800079345703 -17.618999481201172,19.215999603271484 -7.431000232696533,16.152000427246094 C-16.788000106811523,13.173999786376953 -24.232999801635742,21.836999893188477 -24.232999801635742,21.836999893188477z"></path></g></g><g style="display: block;" transform="matrix(1.2275617122650146,0.6893686056137085,-0.6893686056137085,1.2275617122650146,165.2771759033203,116.39356994628906)" opacity="1"><g opacity="1" transform="matrix(1,0,0,1,138.88400268554688,41.20199966430664)"><path fill="rgb(44,27,79)" fill-opacity="1" d=" M-39.983001708984375,-8.07800006866455 C-39.983001708984375,-8.07800006866455 -2.6760001182556152,-6.998000144958496 -15.779000282287598,-40.95199966430664 C-15.779000282287598,-40.95199966430664 46.21200180053711,-35.972999572753906 42.08000183105469,15.685999870300293 C42.08000183105469,15.685999870300293 10.427000045776367,-15.496999740600586 -0.2809999883174896,18.128999710083008 C-0.2809999883174896,18.128999710083008 -24.23200035095215,10.989999771118164 -22.07200050354004,35.505001068115234 C-22.07200050354004,35.505001068115234 -33.71799850463867,23.670000076293945 -46.21099853515625,40.95199966430664 C-46.21099853515625,40.95199966430664 -39.983001708984375,-8.07800006866455 -39.983001708984375,-8.07800006866455z"></path></g><g opacity="1" transform="matrix(1,0,0,1,111.46199798583984,29.139999389648438)"><path fill="rgb(32,21,60)" fill-opacity="1" d=" M-13.185999870300293,8.906000137329102 C-13.185999870300293,8.906000137329102 -12.562000274658203,3.9839999675750732 -12.562000274658203,3.9839999675750732 C-12.562000274658203,3.9839999675750732 7.888999938964844,4.572999954223633 13.185999870300293,-8.906000137329102 C11.222999572753906,5.735000133514404 -4.551000118255615,8.501999855041504 -13.185999870300293,8.906000137329102z"></path></g><g opacity="1" transform="matrix(1,0,0,1,154.10000610351562,28.569000244140625)"><path fill="rgb(32,21,60)" fill-opacity="1" d=" M24.232999801635742,21.836999893188477 C14.397000312805176,-14.144000053405762 -24.09000015258789,-24.85700035095215 -30.288000106811523,-26.363000869750977 C-30.506000518798828,-27.003000259399414 -30.738000869750977,-27.650999069213867 -30.996000289916992,-28.31800079345703 C-30.996000289916992,-28.31800079345703 30.996000289916992,-23.340999603271484 26.863000869750977,28.31800079345703 C26.863000869750977,28.31800079345703 17.618999481201172,19.215999603271484 7.431000232696533,16.152000427246094 C16.788000106811523,13.173999786376953 24.232999801635742,21.836999893188477 24.232999801635742,21.836999893188477z"></path></g></g><g style="display: block;" transform="matrix(1.4078837633132935,0,0,1.4078837633132935,119.52719116210938,182.5641632080078)" opacity="1"><g opacity="1" transform="matrix(1,0,0,1,92.6729965209961,88.18099975585938)"><path fill="rgb(44,27,79)" fill-opacity="1" d=" M3.4519999027252197,3.6670000553131104 C3.4519999027252197,3.6670000553131104 2.9159998893737793,-0.5609999895095825 2.9159998893737793,-0.5609999895095825 C0.6990000009536743,-2.181999921798706 -1.440000057220459,-3.1559998989105225 -3.4519999027252197,-3.6670000553131104 C-1.2089999914169312,-1.9559999704360962 1.1089999675750732,0.42500001192092896 3.4519999027252197,3.6670000553131104z"></path></g><g opacity="1" transform="matrix(1,0,0,1,92.6729965209961,53.305999755859375)"><path fill="rgb(48,32,88)" fill-opacity="1" d=" M11.406000137329102,-18.204999923706055 C14.383999824523926,-21.59000015258789 15.269000053405762,-24.847000122070312 14.618000030517578,-27.621999740600586 C14.618000030517578,-27.621999740600586 14.62600040435791,-27.614999771118164 14.62600040435791,-27.614999771118164 C17.427000045776367,-35.138999938964844 11.741999626159668,-43.237998962402344 11.741999626159668,-43.237998962402344 C10.916999816894531,-40.40299987792969 7.919000148773193,-35.952999114990234 7.067999839782715,-34.7239990234375 C5,-35.42599868774414 2.6070001125335693,-35.816001892089844 0,-35.816001892089844 C-2.6080000400543213,-35.816001892089844 -4.999000072479248,-35.42599868774414 -7.067999839782715,-34.7239990234375 C-7.918000221252441,-35.952999114990234 -10.916000366210938,-40.40299987792969 -11.741000175476074,-43.237998962402344 C-11.741000175476074,-43.237998962402344 -17.427000045776367,-35.138999938964844 -14.625,-27.614999771118164 C-14.625,-27.614999771118164 -14.616999626159668,-27.621999740600586 -14.616999626159668,-27.621999740600586 C-15.269000053405762,-24.847000122070312 -14.383000373840332,-21.59000015258789 -11.406000137329102,-18.204999923706055 C-29.856000900268555,5.443999767303467 0,43.237998962402344 0,43.237998962402344 C0,43.237998962402344 29.856000900268555,5.443999767303467 11.406000137329102,-18.204999923706055z"></path></g><g opacity="1" transform="matrix(1,0,0,1,86.7750015258789,25.875)"><path fill="rgb(196,6,5)" fill-opacity="1" d=" M-2.180000066757202,0 C-2.180000066757202,-1.2050000429153442 -1.2029999494552612,-2.180999994277954 0.0010000000474974513,-2.180999994277954 C1.2050000429153442,-2.180999994277954 2.180000066757202,-1.2050000429153442 2.180000066757202,0 C2.180000066757202,1.2039999961853027 1.2050000429153442,2.180999994277954 0.0010000000474974513,2.180999994277954 C-1.2029999494552612,2.180999994277954 -2.180000066757202,1.2039999961853027 -2.180000066757202,0z"></path></g><g opacity="1" transform="matrix(1,0,0,1,98.5719985961914,25.875)"><path fill="rgb(196,6,5)" fill-opacity="1" d=" M-2.180000066757202,0 C-2.180000066757202,-1.2050000429153442 -1.2029999494552612,-2.180999994277954 0.0010000000474974513,-2.180999994277954 C1.2050000429153442,-2.180999994277954 2.180000066757202,-1.2050000429153442 2.180000066757202,0 C2.180000066757202,1.2039999961853027 1.2050000429153442,2.180999994277954 0.0010000000474974513,2.180999994277954 C-1.2029999494552612,2.180999994277954 -2.180000066757202,1.2039999961853027 -2.180000066757202,0z"></path></g><g opacity="1" transform="matrix(1,0,0,1,88.875,33.236000061035156)"><path fill="rgb(252,252,252)" fill-opacity="1" d=" M-0.7490000128746033,-1.7269999980926514 C-0.7490000128746033,-1.7269999980926514 -1.1160000562667847,1.7269999980926514 -1.1160000562667847,1.7269999980926514 C-1.1160000562667847,1.7269999980926514 1.1160000562667847,-1.0260000228881836 1.1160000562667847,-1.0260000228881836 C1.1160000562667847,-1.0260000228881836 -0.7490000128746033,-1.7269999980926514 -0.7490000128746033,-1.7269999980926514z"></path></g><g opacity="1" transform="matrix(1,0,0,1,96.47200012207031,33.236000061035156)"><path fill="rgb(252,252,252)" fill-opacity="1" d=" M0.7490000128746033,-1.7269999980926514 C0.7490000128746033,-1.7269999980926514 1.1160000562667847,1.7269999980926514 1.1160000562667847,1.7269999980926514 C1.1160000562667847,1.7269999980926514 -1.1160000562667847,-1.0260000228881836 -1.1160000562667847,-1.0260000228881836 C-1.1160000562667847,-1.0260000228881836 0.7490000128746033,-1.7269999980926514 0.7490000128746033,-1.7269999980926514z"></path></g><g opacity="1" transform="matrix(1,0,0,1,92.6760025024414,32.263999938964844)"><path fill="rgb(32,21,60)" fill-opacity="1" d=" M-0.07699999958276749,1.2730000019073486 C-3.308000087738037,1.2730000019073486 -5.488999843597412,-0.28299999237060547 -5.625,-0.38199999928474426 C-5.916999816894531,-0.597000002861023 -5.980000019073486,-1.00600004196167 -5.765999794006348,-1.2990000247955322 C-5.553999900817871,-1.590999960899353 -5.142000198364258,-1.656000018119812 -4.848999977111816,-1.4420000314712524 C-4.672999858856201,-1.3140000104904175 -0.4480000138282776,1.6619999408721924 4.895999908447266,-1.4769999980926514 C5.209000110626221,-1.6610000133514404 5.611999988555908,-1.5570000410079956 5.796000003814697,-1.24399995803833 C5.980000019073486,-0.9309999942779541 5.874000072479248,-0.527999997138977 5.561999797821045,-0.3449999988079071 C3.496000051498413,0.8679999709129333 1.5720000267028809,1.2730000019073486 -0.07699999958276749,1.2730000019073486z"></path></g><g opacity="1" transform="matrix(1,0,0,1,81.08899688720703,17.708999633789062)"><path fill="rgb(44,27,79)" fill-opacity="1" d=" M-0.4230000078678131,-5.210000038146973 C-0.4230000078678131,-5.210000038146973 -3.505000114440918,1.6670000553131104 -1.0720000267028809,5.210000038146973 C-1.0720000267028809,5.210000038146973 -0.07199999690055847,2.7360000610351562 3.505000114440918,1.5410000085830688 C3.505000114440918,1.5410000085830688 1.5759999752044678,-0.1080000028014183 -0.4230000078678131,-5.210000038146973z"></path></g><g opacity="1" transform="matrix(1,0,0,1,104.15299987792969,17.708999633789062)"><path fill="rgb(44,27,79)" fill-opacity="1" d=" M0.4230000078678131,-5.210000038146973 C0.4230000078678131,-5.210000038146973 3.505000114440918,1.6670000553131104 1.0720000267028809,5.210000038146973 C1.0720000267028809,5.210000038146973 0.07199999690055847,2.7360000610351562 -3.505000114440918,1.5410000085830688 C-3.505000114440918,1.5410000085830688 -1.5759999752044678,-0.1080000028014183 0.4230000078678131,-5.210000038146973z"></path></g></g></g><g clip-path="url(#__lottie_element_165)" style="display: none;" transform="matrix(1.5493756532669067,0,0,1.5493756532669067,-140.15591430664062,-232.63587951660156)" opacity="1"><g style="display: block;" transform="matrix(1.2277250289916992,-0.6889671087265015,0.6889671087265015,1.2277250289916992,108.2021713256836,246.36778259277344)" opacity="1"><g opacity="1" transform="matrix(1,0,0,1,46.46200180053711,41.20199966430664)"><path fill="rgb(44,27,79)" fill-opacity="1" d=" M39.98400115966797,-8.07800006866455 C39.98400115966797,-8.07800006866455 2.6760001182556152,-6.998000144958496 15.779000282287598,-40.95199966430664 C15.779000282287598,-40.95199966430664 -46.21099853515625,-35.972999572753906 -42.07899856567383,15.685999870300293 C-42.07899856567383,15.685999870300293 -10.427000045776367,-15.496999740600586 0.2809999883174896,18.128999710083008 C0.2809999883174896,18.128999710083008 24.23200035095215,10.989999771118164 22.07200050354004,35.505001068115234 C22.07200050354004,35.505001068115234 33.71900177001953,23.670000076293945 46.21200180053711,40.95199966430664 C46.21200180053711,40.95199966430664 39.98400115966797,-8.07800006866455 39.98400115966797,-8.07800006866455z"></path></g><g opacity="1" transform="matrix(1,0,0,1,73.88400268554688,29.139999389648438)"><path fill="rgb(32,21,60)" fill-opacity="1" d=" M13.187000274658203,8.906000137329102 C13.187000274658203,8.906000137329102 12.562000274658203,3.9839999675750732 12.562000274658203,3.9839999675750732 C12.562000274658203,3.9839999675750732 -7.889999866485596,4.572999954223633 -13.187000274658203,-8.906000137329102 C-11.223999977111816,5.735000133514404 4.552000045776367,8.501999855041504 13.187000274658203,8.906000137329102z"></path></g><g opacity="1" transform="matrix(1,0,0,1,31.246000289916992,28.569000244140625)"><path fill="rgb(32,21,60)" fill-opacity="1" d=" M-24.232999801635742,21.836999893188477 C-14.397000312805176,-14.144000053405762 24.09000015258789,-24.85700035095215 30.288000106811523,-26.363000869750977 C30.506000518798828,-27.003000259399414 30.738000869750977,-27.650999069213867 30.996000289916992,-28.31800079345703 C30.996000289916992,-28.31800079345703 -30.996000289916992,-23.340999603271484 -26.863000869750977,28.31800079345703 C-26.863000869750977,28.31800079345703 -17.618999481201172,19.215999603271484 -7.431000232696533,16.152000427246094 C-16.788000106811523,13.173999786376953 -24.232999801635742,21.836999893188477 -24.232999801635742,21.836999893188477z"></path></g></g><g style="display: block;" transform="matrix(1.2277250289916992,0.6889671087265015,-0.6889671087265015,1.2277250289916992,165.24362182617188,116.4483871459961)" opacity="1"><g opacity="1" transform="matrix(1,0,0,1,138.88400268554688,41.20199966430664)"><path fill="rgb(44,27,79)" fill-opacity="1" d=" M-39.983001708984375,-8.07800006866455 C-39.983001708984375,-8.07800006866455 -2.6760001182556152,-6.998000144958496 -15.779000282287598,-40.95199966430664 C-15.779000282287598,-40.95199966430664 46.21200180053711,-35.972999572753906 42.08000183105469,15.685999870300293 C42.08000183105469,15.685999870300293 10.427000045776367,-15.496999740600586 -0.2809999883174896,18.128999710083008 C-0.2809999883174896,18.128999710083008 -24.23200035095215,10.989999771118164 -22.07200050354004,35.505001068115234 C-22.07200050354004,35.505001068115234 -33.71799850463867,23.670000076293945 -46.21099853515625,40.95199966430664 C-46.21099853515625,40.95199966430664 -39.983001708984375,-8.07800006866455 -39.983001708984375,-8.07800006866455z"></path></g><g opacity="1" transform="matrix(1,0,0,1,111.46199798583984,29.139999389648438)"><path fill="rgb(32,21,60)" fill-opacity="1" d=" M-13.185999870300293,8.906000137329102 C-13.185999870300293,8.906000137329102 -12.562000274658203,3.9839999675750732 -12.562000274658203,3.9839999675750732 C-12.562000274658203,3.9839999675750732 7.888999938964844,4.572999954223633 13.185999870300293,-8.906000137329102 C11.222999572753906,5.735000133514404 -4.551000118255615,8.501999855041504 -13.185999870300293,8.906000137329102z"></path></g><g opacity="1" transform="matrix(1,0,0,1,154.10000610351562,28.569000244140625)"><path fill="rgb(32,21,60)" fill-opacity="1" d=" M24.232999801635742,21.836999893188477 C14.397000312805176,-14.144000053405762 -24.09000015258789,-24.85700035095215 -30.288000106811523,-26.363000869750977 C-30.506000518798828,-27.003000259399414 -30.738000869750977,-27.650999069213867 -30.996000289916992,-28.31800079345703 C-30.996000289916992,-28.31800079345703 30.996000289916992,-23.340999603271484 26.863000869750977,28.31800079345703 C26.863000869750977,28.31800079345703 17.618999481201172,19.215999603271484 7.431000232696533,16.152000427246094 C16.788000106811523,13.173999786376953 24.232999801635742,21.836999893188477 24.232999801635742,21.836999893188477z"></path></g></g><g style="display: block;" transform="matrix(1.4078296422958374,0,0,1.4078296422958374,119.53221130371094,182.5847930908203)" opacity="1"><g opacity="1" transform="matrix(1,0,0,1,92.6729965209961,88.18099975585938)"><path fill="rgb(44,27,79)" fill-opacity="1" d=" M3.4519999027252197,3.6670000553131104 C3.4519999027252197,3.6670000553131104 2.9159998893737793,-0.5609999895095825 2.9159998893737793,-0.5609999895095825 C0.6990000009536743,-2.181999921798706 -1.440000057220459,-3.1559998989105225 -3.4519999027252197,-3.6670000553131104 C-1.2089999914169312,-1.9559999704360962 1.1089999675750732,0.42500001192092896 3.4519999027252197,3.6670000553131104z"></path></g><g opacity="1" transform="matrix(1,0,0,1,92.6729965209961,53.305999755859375)"><path fill="rgb(48,32,88)" fill-opacity="1" d=" M11.406000137329102,-18.204999923706055 C14.383999824523926,-21.59000015258789 15.269000053405762,-24.847000122070312 14.618000030517578,-27.621999740600586 C14.618000030517578,-27.621999740600586 14.62600040435791,-27.614999771118164 14.62600040435791,-27.614999771118164 C17.427000045776367,-35.138999938964844 11.741999626159668,-43.237998962402344 11.741999626159668,-43.237998962402344 C10.916999816894531,-40.40299987792969 7.919000148773193,-35.952999114990234 7.067999839782715,-34.7239990234375 C5,-35.42599868774414 2.6070001125335693,-35.816001892089844 0,-35.816001892089844 C-2.6080000400543213,-35.816001892089844 -4.999000072479248,-35.42599868774414 -7.067999839782715,-34.7239990234375 C-7.918000221252441,-35.952999114990234 -10.916000366210938,-40.40299987792969 -11.741000175476074,-43.237998962402344 C-11.741000175476074,-43.237998962402344 -17.427000045776367,-35.138999938964844 -14.625,-27.614999771118164 C-14.625,-27.614999771118164 -14.616999626159668,-27.621999740600586 -14.616999626159668,-27.621999740600586 C-15.269000053405762,-24.847000122070312 -14.383000373840332,-21.59000015258789 -11.406000137329102,-18.204999923706055 C-29.856000900268555,5.443999767303467 0,43.237998962402344 0,43.237998962402344 C0,43.237998962402344 29.856000900268555,5.443999767303467 11.406000137329102,-18.204999923706055z"></path></g><g opacity="1" transform="matrix(1,0,0,1,86.7750015258789,25.875)"><path fill="rgb(196,6,5)" fill-opacity="1" d=" M-2.180000066757202,0 C-2.180000066757202,-1.2050000429153442 -1.2029999494552612,-2.180999994277954 0.0010000000474974513,-2.180999994277954 C1.2050000429153442,-2.180999994277954 2.180000066757202,-1.2050000429153442 2.180000066757202,0 C2.180000066757202,1.2039999961853027 1.2050000429153442,2.180999994277954 0.0010000000474974513,2.180999994277954 C-1.2029999494552612,2.180999994277954 -2.180000066757202,1.2039999961853027 -2.180000066757202,0z"></path></g><g opacity="1" transform="matrix(1,0,0,1,98.5719985961914,25.875)"><path fill="rgb(196,6,5)" fill-opacity="1" d=" M-2.180000066757202,0 C-2.180000066757202,-1.2050000429153442 -1.2029999494552612,-2.180999994277954 0.0010000000474974513,-2.180999994277954 C1.2050000429153442,-2.180999994277954 2.180000066757202,-1.2050000429153442 2.180000066757202,0 C2.180000066757202,1.2039999961853027 1.2050000429153442,2.180999994277954 0.0010000000474974513,2.180999994277954 C-1.2029999494552612,2.180999994277954 -2.180000066757202,1.2039999961853027 -2.180000066757202,0z"></path></g><g opacity="1" transform="matrix(1,0,0,1,88.875,33.236000061035156)"><path fill="rgb(252,252,252)" fill-opacity="1" d=" M-0.7490000128746033,-1.7269999980926514 C-0.7490000128746033,-1.7269999980926514 -1.1160000562667847,1.7269999980926514 -1.1160000562667847,1.7269999980926514 C-1.1160000562667847,1.7269999980926514 1.1160000562667847,-1.0260000228881836 1.1160000562667847,-1.0260000228881836 C1.1160000562667847,-1.0260000228881836 -0.7490000128746033,-1.7269999980926514 -0.7490000128746033,-1.7269999980926514z"></path></g><g opacity="1" transform="matrix(1,0,0,1,96.47200012207031,33.236000061035156)"><path fill="rgb(252,252,252)" fill-opacity="1" d=" M0.7490000128746033,-1.7269999980926514 C0.7490000128746033,-1.7269999980926514 1.1160000562667847,1.7269999980926514 1.1160000562667847,1.7269999980926514 C1.1160000562667847,1.7269999980926514 -1.1160000562667847,-1.0260000228881836 -1.1160000562667847,-1.0260000228881836 C-1.1160000562667847,-1.0260000228881836 0.7490000128746033,-1.7269999980926514 0.7490000128746033,-1.7269999980926514z"></path></g><g opacity="1" transform="matrix(1,0,0,1,92.6760025024414,32.263999938964844)"><path fill="rgb(32,21,60)" fill-opacity="1" d=" M-0.07699999958276749,1.2730000019073486 C-3.308000087738037,1.2730000019073486 -5.488999843597412,-0.28299999237060547 -5.625,-0.38199999928474426 C-5.916999816894531,-0.597000002861023 -5.980000019073486,-1.00600004196167 -5.765999794006348,-1.2990000247955322 C-5.553999900817871,-1.590999960899353 -5.142000198364258,-1.656000018119812 -4.848999977111816,-1.4420000314712524 C-4.672999858856201,-1.3140000104904175 -0.4480000138282776,1.6619999408721924 4.895999908447266,-1.4769999980926514 C5.209000110626221,-1.6610000133514404 5.611999988555908,-1.5570000410079956 5.796000003814697,-1.24399995803833 C5.980000019073486,-0.9309999942779541 5.874000072479248,-0.527999997138977 5.561999797821045,-0.3449999988079071 C3.496000051498413,0.8679999709129333 1.5720000267028809,1.2730000019073486 -0.07699999958276749,1.2730000019073486z"></path></g><g opacity="1" transform="matrix(1,0,0,1,81.08899688720703,17.708999633789062)"><path fill="rgb(44,27,79)" fill-opacity="1" d=" M-0.4230000078678131,-5.210000038146973 C-0.4230000078678131,-5.210000038146973 -3.505000114440918,1.6670000553131104 -1.0720000267028809,5.210000038146973 C-1.0720000267028809,5.210000038146973 -0.07199999690055847,2.7360000610351562 3.505000114440918,1.5410000085830688 C3.505000114440918,1.5410000085830688 1.5759999752044678,-0.1080000028014183 -0.4230000078678131,-5.210000038146973z"></path></g><g opacity="1" transform="matrix(1,0,0,1,104.15299987792969,17.708999633789062)"><path fill="rgb(44,27,79)" fill-opacity="1" d=" M0.4230000078678131,-5.210000038146973 C0.4230000078678131,-5.210000038146973 3.505000114440918,1.6670000553131104 1.0720000267028809,5.210000038146973 C1.0720000267028809,5.210000038146973 0.07199999690055847,2.7360000610351562 -3.505000114440918,1.5410000085830688 C-3.505000114440918,1.5410000085830688 -1.5759999752044678,-0.1080000028014183 0.4230000078678131,-5.210000038146973z"></path></g></g></g><g clip-path="url(#__lottie_element_151)" style="display: block;" transform="matrix(2.1723029613494873,0,0,2.1723029613494873,-295.88775634765625,-787.2867431640625)" opacity="1"><g style="display: block;" transform="matrix(1.2293496131896973,-0.6849499344825745,0.6849499344825745,1.2293496131896973,108.2262191772461,246.1598358154297)" opacity="1"><g opacity="1" transform="matrix(1,0,0,1,46.46200180053711,41.20199966430664)"><path fill="rgb(44,27,79)" fill-opacity="1" d=" M39.98400115966797,-8.07800006866455 C39.98400115966797,-8.07800006866455 2.6760001182556152,-6.998000144958496 15.779000282287598,-40.95199966430664 C15.779000282287598,-40.95199966430664 -46.21099853515625,-35.972999572753906 -42.07899856567383,15.685999870300293 C-42.07899856567383,15.685999870300293 -10.427000045776367,-15.496999740600586 0.2809999883174896,18.128999710083008 C0.2809999883174896,18.128999710083008 24.23200035095215,10.989999771118164 22.07200050354004,35.505001068115234 C22.07200050354004,35.505001068115234 33.71900177001953,23.670000076293945 46.21200180053711,40.95199966430664 C46.21200180053711,40.95199966430664 39.98400115966797,-8.07800006866455 39.98400115966797,-8.07800006866455z"></path></g><g opacity="1" transform="matrix(1,0,0,1,73.88400268554688,29.139999389648438)"><path fill="rgb(32,21,60)" fill-opacity="1" d=" M13.187000274658203,8.906000137329102 C13.187000274658203,8.906000137329102 12.562000274658203,3.9839999675750732 12.562000274658203,3.9839999675750732 C12.562000274658203,3.9839999675750732 -7.889999866485596,4.572999954223633 -13.187000274658203,-8.906000137329102 C-11.223999977111816,5.735000133514404 4.552000045776367,8.501999855041504 13.187000274658203,8.906000137329102z"></path></g><g opacity="1" transform="matrix(1,0,0,1,31.246000289916992,28.569000244140625)"><path fill="rgb(32,21,60)" fill-opacity="1" d=" M-24.232999801635742,21.836999893188477 C-14.397000312805176,-14.144000053405762 24.09000015258789,-24.85700035095215 30.288000106811523,-26.363000869750977 C30.506000518798828,-27.003000259399414 30.738000869750977,-27.650999069213867 30.996000289916992,-28.31800079345703 C30.996000289916992,-28.31800079345703 -30.996000289916992,-23.340999603271484 -26.863000869750977,28.31800079345703 C-26.863000869750977,28.31800079345703 -17.618999481201172,19.215999603271484 -7.431000232696533,16.152000427246094 C-16.788000106811523,13.173999786376953 -24.232999801635742,21.836999893188477 -24.232999801635742,21.836999893188477z"></path></g></g><g style="display: block;" transform="matrix(1.2293496131896973,0.6849499344825745,-0.6849499344825745,1.2293496131896973,164.90887451171875,116.99732208251953)" opacity="1"><g opacity="1" transform="matrix(1,0,0,1,138.88400268554688,41.20199966430664)"><path fill="rgb(44,27,79)" fill-opacity="1" d=" M-39.983001708984375,-8.07800006866455 C-39.983001708984375,-8.07800006866455 -2.6760001182556152,-6.998000144958496 -15.779000282287598,-40.95199966430664 C-15.779000282287598,-40.95199966430664 46.21200180053711,-35.972999572753906 42.08000183105469,15.685999870300293 C42.08000183105469,15.685999870300293 10.427000045776367,-15.496999740600586 -0.2809999883174896,18.128999710083008 C-0.2809999883174896,18.128999710083008 -24.23200035095215,10.989999771118164 -22.07200050354004,35.505001068115234 C-22.07200050354004,35.505001068115234 -33.71799850463867,23.670000076293945 -46.21099853515625,40.95199966430664 C-46.21099853515625,40.95199966430664 -39.983001708984375,-8.07800006866455 -39.983001708984375,-8.07800006866455z"></path></g><g opacity="1" transform="matrix(1,0,0,1,111.46199798583984,29.139999389648438)"><path fill="rgb(32,21,60)" fill-opacity="1" d=" M-13.185999870300293,8.906000137329102 C-13.185999870300293,8.906000137329102 -12.562000274658203,3.9839999675750732 -12.562000274658203,3.9839999675750732 C-12.562000274658203,3.9839999675750732 7.888999938964844,4.572999954223633 13.185999870300293,-8.906000137329102 C11.222999572753906,5.735000133514404 -4.551000118255615,8.501999855041504 -13.185999870300293,8.906000137329102z"></path></g><g opacity="1" transform="matrix(1,0,0,1,154.10000610351562,28.569000244140625)"><path fill="rgb(32,21,60)" fill-opacity="1" d=" M24.232999801635742,21.836999893188477 C14.397000312805176,-14.144000053405762 -24.09000015258789,-24.85700035095215 -30.288000106811523,-26.363000869750977 C-30.506000518798828,-27.003000259399414 -30.738000869750977,-27.650999069213867 -30.996000289916992,-28.31800079345703 C-30.996000289916992,-28.31800079345703 30.996000289916992,-23.340999603271484 26.863000869750977,28.31800079345703 C26.863000869750977,28.31800079345703 17.618999481201172,19.215999603271484 7.431000232696533,16.152000427246094 C16.788000106811523,13.173999786376953 24.232999801635742,21.836999893188477 24.232999801635742,21.836999893188477z"></path></g></g><g style="display: block;" transform="matrix(1.4072870016098022,0,0,1.4072870016098022,119.5824966430664,182.79122924804688)" opacity="1"><g opacity="1" transform="matrix(1,0,0,1,92.6729965209961,88.18099975585938)"><path fill="rgb(44,27,79)" fill-opacity="1" d=" M3.4519999027252197,3.6670000553131104 C3.4519999027252197,3.6670000553131104 2.9159998893737793,-0.5609999895095825 2.9159998893737793,-0.5609999895095825 C0.6990000009536743,-2.181999921798706 -1.440000057220459,-3.1559998989105225 -3.4519999027252197,-3.6670000553131104 C-1.2089999914169312,-1.9559999704360962 1.1089999675750732,0.42500001192092896 3.4519999027252197,3.6670000553131104z"></path></g><g opacity="1" transform="matrix(1,0,0,1,92.6729965209961,53.305999755859375)"><path fill="rgb(48,32,88)" fill-opacity="1" d=" M11.406000137329102,-18.204999923706055 C14.383999824523926,-21.59000015258789 15.269000053405762,-24.847000122070312 14.618000030517578,-27.621999740600586 C14.618000030517578,-27.621999740600586 14.62600040435791,-27.614999771118164 14.62600040435791,-27.614999771118164 C17.427000045776367,-35.138999938964844 11.741999626159668,-43.237998962402344 11.741999626159668,-43.237998962402344 C10.916999816894531,-40.40299987792969 7.919000148773193,-35.952999114990234 7.067999839782715,-34.7239990234375 C5,-35.42599868774414 2.6070001125335693,-35.816001892089844 0,-35.816001892089844 C-2.6080000400543213,-35.816001892089844 -4.999000072479248,-35.42599868774414 -7.067999839782715,-34.7239990234375 C-7.918000221252441,-35.952999114990234 -10.916000366210938,-40.40299987792969 -11.741000175476074,-43.237998962402344 C-11.741000175476074,-43.237998962402344 -17.427000045776367,-35.138999938964844 -14.625,-27.614999771118164 C-14.625,-27.614999771118164 -14.616999626159668,-27.621999740600586 -14.616999626159668,-27.621999740600586 C-15.269000053405762,-24.847000122070312 -14.383000373840332,-21.59000015258789 -11.406000137329102,-18.204999923706055 C-29.856000900268555,5.443999767303467 0,43.237998962402344 0,43.237998962402344 C0,43.237998962402344 29.856000900268555,5.443999767303467 11.406000137329102,-18.204999923706055z"></path></g><g opacity="1" transform="matrix(1,0,0,1,86.7750015258789,25.875)"><path fill="rgb(196,6,5)" fill-opacity="1" d=" M-2.180000066757202,0 C-2.180000066757202,-1.2050000429153442 -1.2029999494552612,-2.180999994277954 0.0010000000474974513,-2.180999994277954 C1.2050000429153442,-2.180999994277954 2.180000066757202,-1.2050000429153442 2.180000066757202,0 C2.180000066757202,1.2039999961853027 1.2050000429153442,2.180999994277954 0.0010000000474974513,2.180999994277954 C-1.2029999494552612,2.180999994277954 -2.180000066757202,1.2039999961853027 -2.180000066757202,0z"></path></g><g opacity="1" transform="matrix(1,0,0,1,98.5719985961914,25.875)"><path fill="rgb(196,6,5)" fill-opacity="1" d=" M-2.180000066757202,0 C-2.180000066757202,-1.2050000429153442 -1.2029999494552612,-2.180999994277954 0.0010000000474974513,-2.180999994277954 C1.2050000429153442,-2.180999994277954 2.180000066757202,-1.2050000429153442 2.180000066757202,0 C2.180000066757202,1.2039999961853027 1.2050000429153442,2.180999994277954 0.0010000000474974513,2.180999994277954 C-1.2029999494552612,2.180999994277954 -2.180000066757202,1.2039999961853027 -2.180000066757202,0z"></path></g><g opacity="1" transform="matrix(1,0,0,1,88.875,33.236000061035156)"><path fill="rgb(252,252,252)" fill-opacity="1" d=" M-0.7490000128746033,-1.7269999980926514 C-0.7490000128746033,-1.7269999980926514 -1.1160000562667847,1.7269999980926514 -1.1160000562667847,1.7269999980926514 C-1.1160000562667847,1.7269999980926514 1.1160000562667847,-1.0260000228881836 1.1160000562667847,-1.0260000228881836 C1.1160000562667847,-1.0260000228881836 -0.7490000128746033,-1.7269999980926514 -0.7490000128746033,-1.7269999980926514z"></path></g><g opacity="1" transform="matrix(1,0,0,1,96.47200012207031,33.236000061035156)"><path fill="rgb(252,252,252)" fill-opacity="1" d=" M0.7490000128746033,-1.7269999980926514 C0.7490000128746033,-1.7269999980926514 1.1160000562667847,1.7269999980926514 1.1160000562667847,1.7269999980926514 C1.1160000562667847,1.7269999980926514 -1.1160000562667847,-1.0260000228881836 -1.1160000562667847,-1.0260000228881836 C-1.1160000562667847,-1.0260000228881836 0.7490000128746033,-1.7269999980926514 0.7490000128746033,-1.7269999980926514z"></path></g><g opacity="1" transform="matrix(1,0,0,1,92.6760025024414,32.263999938964844)"><path fill="rgb(32,21,60)" fill-opacity="1" d=" M-0.07699999958276749,1.2730000019073486 C-3.308000087738037,1.2730000019073486 -5.488999843597412,-0.28299999237060547 -5.625,-0.38199999928474426 C-5.916999816894531,-0.597000002861023 -5.980000019073486,-1.00600004196167 -5.765999794006348,-1.2990000247955322 C-5.553999900817871,-1.590999960899353 -5.142000198364258,-1.656000018119812 -4.848999977111816,-1.4420000314712524 C-4.672999858856201,-1.3140000104904175 -0.4480000138282776,1.6619999408721924 4.895999908447266,-1.4769999980926514 C5.209000110626221,-1.6610000133514404 5.611999988555908,-1.5570000410079956 5.796000003814697,-1.24399995803833 C5.980000019073486,-0.9309999942779541 5.874000072479248,-0.527999997138977 5.561999797821045,-0.3449999988079071 C3.496000051498413,0.8679999709129333 1.5720000267028809,1.2730000019073486 -0.07699999958276749,1.2730000019073486z"></path></g><g opacity="1" transform="matrix(1,0,0,1,81.08899688720703,17.708999633789062)"><path fill="rgb(44,27,79)" fill-opacity="1" d=" M-0.4230000078678131,-5.210000038146973 C-0.4230000078678131,-5.210000038146973 -3.505000114440918,1.6670000553131104 -1.0720000267028809,5.210000038146973 C-1.0720000267028809,5.210000038146973 -0.07199999690055847,2.7360000610351562 3.505000114440918,1.5410000085830688 C3.505000114440918,1.5410000085830688 1.5759999752044678,-0.1080000028014183 -0.4230000078678131,-5.210000038146973z"></path></g><g opacity="1" transform="matrix(1,0,0,1,104.15299987792969,17.708999633789062)"><path fill="rgb(44,27,79)" fill-opacity="1" d=" M0.4230000078678131,-5.210000038146973 C0.4230000078678131,-5.210000038146973 3.505000114440918,1.6670000553131104 1.0720000267028809,5.210000038146973 C1.0720000267028809,5.210000038146973 0.07199999690055847,2.7360000610351562 -3.505000114440918,1.5410000085830688 C-3.505000114440918,1.5410000085830688 -1.5759999752044678,-0.1080000028014183 0.4230000078678131,-5.210000038146973z"></path></g></g></g></g>
</svg>